<mxfile host="app.diagrams.net" modified="2024-06-07T20:44:44.089Z" agent="Mozilla/5.0 (Windows NT 10.0; Win64; x64) AppleWebKit/537.36 (KHTML, like Gecko) Chrome/125.0.0.0 Safari/537.36" etag="NiyabWVGJIquZilYIOZX" version="24.4.9" type="github">
  <diagram name="Страница — 1" id="dIMxb_nDym23TIvO75JO">
    <mxGraphModel dx="420" dy="1140" grid="1" gridSize="10" guides="1" tooltips="1" connect="1" arrows="1" fold="1" page="1" pageScale="1" pageWidth="827" pageHeight="1169" math="0" shadow="0">
      <root>
        <mxCell id="0" />
        <mxCell id="1" parent="0" />
        <mxCell id="73jidbY0aN2KytLfvNd--1" value="Член чата" style="swimlane;fontStyle=0;childLayout=stackLayout;horizontal=1;startSize=26;horizontalStack=0;resizeParent=1;resizeParentMax=0;resizeLast=0;collapsible=1;marginBottom=0;align=center;fontSize=14;" parent="1" vertex="1">
          <mxGeometry x="2415" y="20" width="160" height="86" as="geometry" />
        </mxCell>
        <mxCell id="73jidbY0aN2KytLfvNd--3" value="Время вступления в чат" style="text;strokeColor=none;fillColor=none;spacingLeft=4;spacingRight=4;overflow=hidden;rotatable=0;points=[[0,0.5],[1,0.5]];portConstraint=eastwest;fontSize=12;whiteSpace=wrap;html=1;" parent="73jidbY0aN2KytLfvNd--1" vertex="1">
          <mxGeometry y="26" width="160" height="30" as="geometry" />
        </mxCell>
        <mxCell id="73jidbY0aN2KytLfvNd--4" value="Роль" style="text;strokeColor=none;fillColor=none;spacingLeft=4;spacingRight=4;overflow=hidden;rotatable=0;points=[[0,0.5],[1,0.5]];portConstraint=eastwest;fontSize=12;whiteSpace=wrap;html=1;" parent="73jidbY0aN2KytLfvNd--1" vertex="1">
          <mxGeometry y="56" width="160" height="30" as="geometry" />
        </mxCell>
        <mxCell id="73jidbY0aN2KytLfvNd--5" value="Чат" style="swimlane;fontStyle=0;childLayout=stackLayout;horizontal=1;startSize=26;horizontalStack=0;resizeParent=1;resizeParentMax=0;resizeLast=0;collapsible=1;marginBottom=0;align=center;fontSize=14;" parent="1" vertex="1">
          <mxGeometry x="2481" y="175" width="160" height="116" as="geometry" />
        </mxCell>
        <mxCell id="73jidbY0aN2KytLfvNd--7" value="Название чата" style="text;strokeColor=none;fillColor=none;spacingLeft=4;spacingRight=4;overflow=hidden;rotatable=0;points=[[0,0.5],[1,0.5]];portConstraint=eastwest;fontSize=12;whiteSpace=wrap;html=1;" parent="73jidbY0aN2KytLfvNd--5" vertex="1">
          <mxGeometry y="26" width="160" height="30" as="geometry" />
        </mxCell>
        <mxCell id="73jidbY0aN2KytLfvNd--8" value="Тип чата" style="text;strokeColor=none;fillColor=none;spacingLeft=4;spacingRight=4;overflow=hidden;rotatable=0;points=[[0,0.5],[1,0.5]];portConstraint=eastwest;fontSize=12;whiteSpace=wrap;html=1;" parent="73jidbY0aN2KytLfvNd--5" vertex="1">
          <mxGeometry y="56" width="160" height="30" as="geometry" />
        </mxCell>
        <mxCell id="73jidbY0aN2KytLfvNd--9" value="Статус блокировки" style="text;strokeColor=none;fillColor=none;spacingLeft=4;spacingRight=4;overflow=hidden;rotatable=0;points=[[0,0.5],[1,0.5]];portConstraint=eastwest;fontSize=12;whiteSpace=wrap;html=1;" parent="73jidbY0aN2KytLfvNd--5" vertex="1">
          <mxGeometry y="86" width="160" height="30" as="geometry" />
        </mxCell>
        <mxCell id="73jidbY0aN2KytLfvNd--10" value="Пользователь" style="swimlane;fontStyle=0;childLayout=stackLayout;horizontal=1;startSize=26;horizontalStack=0;resizeParent=1;resizeParentMax=0;resizeLast=0;collapsible=1;marginBottom=0;align=center;fontSize=14;" parent="1" vertex="1">
          <mxGeometry x="1940" y="164" width="180" height="206" as="geometry" />
        </mxCell>
        <mxCell id="73jidbY0aN2KytLfvNd--12" value="Имя пользователя" style="text;strokeColor=none;fillColor=none;spacingLeft=4;spacingRight=4;overflow=hidden;rotatable=0;points=[[0,0.5],[1,0.5]];portConstraint=eastwest;fontSize=12;whiteSpace=wrap;html=1;" parent="73jidbY0aN2KytLfvNd--10" vertex="1">
          <mxGeometry y="26" width="180" height="30" as="geometry" />
        </mxCell>
        <mxCell id="73jidbY0aN2KytLfvNd--13" value="Фамилия пользователя" style="text;strokeColor=none;fillColor=none;spacingLeft=4;spacingRight=4;overflow=hidden;rotatable=0;points=[[0,0.5],[1,0.5]];portConstraint=eastwest;fontSize=12;whiteSpace=wrap;html=1;" parent="73jidbY0aN2KytLfvNd--10" vertex="1">
          <mxGeometry y="56" width="180" height="30" as="geometry" />
        </mxCell>
        <mxCell id="73jidbY0aN2KytLfvNd--14" value="Номер телефона" style="text;strokeColor=none;fillColor=none;spacingLeft=4;spacingRight=4;overflow=hidden;rotatable=0;points=[[0,0.5],[1,0.5]];portConstraint=eastwest;fontSize=12;whiteSpace=wrap;html=1;" parent="73jidbY0aN2KytLfvNd--10" vertex="1">
          <mxGeometry y="86" width="180" height="30" as="geometry" />
        </mxCell>
        <mxCell id="73jidbY0aN2KytLfvNd--15" value="Пароль" style="text;strokeColor=none;fillColor=none;spacingLeft=4;spacingRight=4;overflow=hidden;rotatable=0;points=[[0,0.5],[1,0.5]];portConstraint=eastwest;fontSize=12;whiteSpace=wrap;html=1;" parent="73jidbY0aN2KytLfvNd--10" vertex="1">
          <mxGeometry y="116" width="180" height="30" as="geometry" />
        </mxCell>
        <mxCell id="73jidbY0aN2KytLfvNd--16" value="Ник пользователя" style="text;strokeColor=none;fillColor=none;spacingLeft=4;spacingRight=4;overflow=hidden;rotatable=0;points=[[0,0.5],[1,0.5]];portConstraint=eastwest;fontSize=12;whiteSpace=wrap;html=1;" parent="73jidbY0aN2KytLfvNd--10" vertex="1">
          <mxGeometry y="146" width="180" height="30" as="geometry" />
        </mxCell>
        <mxCell id="73jidbY0aN2KytLfvNd--17" value="Статус блокировки" style="text;strokeColor=none;fillColor=none;spacingLeft=4;spacingRight=4;overflow=hidden;rotatable=0;points=[[0,0.5],[1,0.5]];portConstraint=eastwest;fontSize=12;whiteSpace=wrap;html=1;" parent="73jidbY0aN2KytLfvNd--10" vertex="1">
          <mxGeometry y="176" width="180" height="30" as="geometry" />
        </mxCell>
        <mxCell id="73jidbY0aN2KytLfvNd--18" value="Сообщение" style="swimlane;fontStyle=0;childLayout=stackLayout;horizontal=1;startSize=26;horizontalStack=0;resizeParent=1;resizeParentMax=0;resizeLast=0;collapsible=1;marginBottom=0;align=center;fontSize=14;" parent="1" vertex="1">
          <mxGeometry x="1940" y="550" width="170" height="116" as="geometry" />
        </mxCell>
        <mxCell id="73jidbY0aN2KytLfvNd--20" value="Текст сообщения" style="text;strokeColor=none;fillColor=none;spacingLeft=4;spacingRight=4;overflow=hidden;rotatable=0;points=[[0,0.5],[1,0.5]];portConstraint=eastwest;fontSize=12;whiteSpace=wrap;html=1;" parent="73jidbY0aN2KytLfvNd--18" vertex="1">
          <mxGeometry y="26" width="170" height="30" as="geometry" />
        </mxCell>
        <mxCell id="73jidbY0aN2KytLfvNd--21" value="Статус прочтения" style="text;strokeColor=none;fillColor=none;spacingLeft=4;spacingRight=4;overflow=hidden;rotatable=0;points=[[0,0.5],[1,0.5]];portConstraint=eastwest;fontSize=12;whiteSpace=wrap;html=1;" parent="73jidbY0aN2KytLfvNd--18" vertex="1">
          <mxGeometry y="56" width="170" height="30" as="geometry" />
        </mxCell>
        <mxCell id="73jidbY0aN2KytLfvNd--22" value="Время отправки" style="text;strokeColor=none;fillColor=none;spacingLeft=4;spacingRight=4;overflow=hidden;rotatable=0;points=[[0,0.5],[1,0.5]];portConstraint=eastwest;fontSize=12;whiteSpace=wrap;html=1;" parent="73jidbY0aN2KytLfvNd--18" vertex="1">
          <mxGeometry y="86" width="170" height="30" as="geometry" />
        </mxCell>
        <mxCell id="73jidbY0aN2KytLfvNd--23" value="Файл" style="swimlane;fontStyle=0;childLayout=stackLayout;horizontal=1;startSize=26;horizontalStack=0;resizeParent=1;resizeParentMax=0;resizeLast=0;collapsible=1;marginBottom=0;align=center;fontSize=14;" parent="1" vertex="1">
          <mxGeometry x="2505" y="570" width="160" height="56" as="geometry" />
        </mxCell>
        <mxCell id="73jidbY0aN2KytLfvNd--25" value="Название файла" style="text;strokeColor=none;fillColor=none;spacingLeft=4;spacingRight=4;overflow=hidden;rotatable=0;points=[[0,0.5],[1,0.5]];portConstraint=eastwest;fontSize=12;whiteSpace=wrap;html=1;" parent="73jidbY0aN2KytLfvNd--23" vertex="1">
          <mxGeometry y="26" width="160" height="30" as="geometry" />
        </mxCell>
        <mxCell id="73jidbY0aN2KytLfvNd--26" value="Администратор" style="swimlane;fontStyle=0;childLayout=stackLayout;horizontal=1;startSize=26;horizontalStack=0;resizeParent=1;resizeParentMax=0;resizeLast=0;collapsible=1;marginBottom=0;align=center;fontSize=14;" parent="1" vertex="1">
          <mxGeometry x="2860" y="170" width="210" height="176" as="geometry" />
        </mxCell>
        <mxCell id="73jidbY0aN2KytLfvNd--28" value="Имя&amp;nbsp;&lt;span style=&quot;font-size: 14px; text-align: center; text-wrap: nowrap;&quot;&gt;администратора&lt;/span&gt;" style="text;strokeColor=none;fillColor=none;spacingLeft=4;spacingRight=4;overflow=hidden;rotatable=0;points=[[0,0.5],[1,0.5]];portConstraint=eastwest;fontSize=12;whiteSpace=wrap;html=1;" parent="73jidbY0aN2KytLfvNd--26" vertex="1">
          <mxGeometry y="26" width="210" height="30" as="geometry" />
        </mxCell>
        <mxCell id="73jidbY0aN2KytLfvNd--29" value="Фамилия&amp;nbsp;&lt;span style=&quot;font-size: 14px; text-align: center; text-wrap: nowrap;&quot;&gt;администратора&lt;/span&gt;" style="text;strokeColor=none;fillColor=none;spacingLeft=4;spacingRight=4;overflow=hidden;rotatable=0;points=[[0,0.5],[1,0.5]];portConstraint=eastwest;fontSize=12;whiteSpace=wrap;html=1;" parent="73jidbY0aN2KytLfvNd--26" vertex="1">
          <mxGeometry y="56" width="210" height="30" as="geometry" />
        </mxCell>
        <mxCell id="73jidbY0aN2KytLfvNd--30" value="Номер телефона" style="text;strokeColor=none;fillColor=none;spacingLeft=4;spacingRight=4;overflow=hidden;rotatable=0;points=[[0,0.5],[1,0.5]];portConstraint=eastwest;fontSize=12;whiteSpace=wrap;html=1;" parent="73jidbY0aN2KytLfvNd--26" vertex="1">
          <mxGeometry y="86" width="210" height="30" as="geometry" />
        </mxCell>
        <mxCell id="73jidbY0aN2KytLfvNd--31" value="Пароль" style="text;strokeColor=none;fillColor=none;spacingLeft=4;spacingRight=4;overflow=hidden;rotatable=0;points=[[0,0.5],[1,0.5]];portConstraint=eastwest;fontSize=12;whiteSpace=wrap;html=1;" parent="73jidbY0aN2KytLfvNd--26" vertex="1">
          <mxGeometry y="116" width="210" height="30" as="geometry" />
        </mxCell>
        <mxCell id="73jidbY0aN2KytLfvNd--32" value="Ник&amp;nbsp;&lt;span style=&quot;font-size: 14px; text-align: center; text-wrap: nowrap;&quot;&gt;администратора&lt;/span&gt;" style="text;strokeColor=none;fillColor=none;spacingLeft=4;spacingRight=4;overflow=hidden;rotatable=0;points=[[0,0.5],[1,0.5]];portConstraint=eastwest;fontSize=12;whiteSpace=wrap;html=1;" parent="73jidbY0aN2KytLfvNd--26" vertex="1">
          <mxGeometry y="146" width="210" height="30" as="geometry" />
        </mxCell>
        <mxCell id="73jidbY0aN2KytLfvNd--33" value="является&lt;div&gt;&lt;br/&gt;&lt;/div&gt;" style="ellipse;whiteSpace=wrap;html=1;" parent="1" vertex="1">
          <mxGeometry x="2305" y="554" width="110" height="70" as="geometry" />
        </mxCell>
        <mxCell id="73jidbY0aN2KytLfvNd--34" value="" style="endArrow=none;html=1;rounded=0;exitX=0;exitY=0.5;exitDx=0;exitDy=0;entryX=1;entryY=0.5;entryDx=0;entryDy=0;" parent="1" source="73jidbY0aN2KytLfvNd--33" target="73jidbY0aN2KytLfvNd--33" edge="1">
          <mxGeometry width="50" height="50" relative="1" as="geometry">
            <mxPoint x="2335" y="595" as="sourcePoint" />
            <mxPoint x="2425" y="595" as="targetPoint" />
          </mxGeometry>
        </mxCell>
        <mxCell id="73jidbY0aN2KytLfvNd--35" value="" style="endArrow=none;html=1;rounded=0;entryX=0;entryY=0.5;entryDx=0;entryDy=0;exitX=1;exitY=0.25;exitDx=0;exitDy=0;" parent="1" target="73jidbY0aN2KytLfvNd--33" edge="1">
          <mxGeometry width="50" height="50" relative="1" as="geometry">
            <mxPoint x="2115" y="589" as="sourcePoint" />
            <mxPoint x="2195" y="489" as="targetPoint" />
          </mxGeometry>
        </mxCell>
        <mxCell id="73jidbY0aN2KytLfvNd--36" value="" style="endArrow=none;html=1;rounded=0;entryX=0;entryY=0.25;entryDx=0;entryDy=0;exitX=1;exitY=0.5;exitDx=0;exitDy=0;" parent="1" source="73jidbY0aN2KytLfvNd--33" edge="1">
          <mxGeometry width="50" height="50" relative="1" as="geometry">
            <mxPoint x="2145" y="539" as="sourcePoint" />
            <mxPoint x="2505" y="589" as="targetPoint" />
          </mxGeometry>
        </mxCell>
        <mxCell id="73jidbY0aN2KytLfvNd--37" value="0, 1" style="text;html=1;align=center;verticalAlign=middle;whiteSpace=wrap;rounded=0;" parent="1" vertex="1">
          <mxGeometry x="2110" y="588" width="60" height="30" as="geometry" />
        </mxCell>
        <mxCell id="73jidbY0aN2KytLfvNd--38" value="1, 1" style="text;html=1;align=center;verticalAlign=middle;whiteSpace=wrap;rounded=0;" parent="1" vertex="1">
          <mxGeometry x="2445" y="589" width="60" height="30" as="geometry" />
        </mxCell>
        <mxCell id="73jidbY0aN2KytLfvNd--39" value="отправляет&lt;div&gt;&lt;br/&gt;&lt;/div&gt;" style="ellipse;whiteSpace=wrap;html=1;" parent="1" vertex="1">
          <mxGeometry x="1970" y="449" width="110" height="70" as="geometry" />
        </mxCell>
        <mxCell id="73jidbY0aN2KytLfvNd--40" value="" style="endArrow=none;html=1;rounded=0;exitX=0;exitY=0.5;exitDx=0;exitDy=0;entryX=1;entryY=0.5;entryDx=0;entryDy=0;" parent="1" source="73jidbY0aN2KytLfvNd--39" target="73jidbY0aN2KytLfvNd--39" edge="1">
          <mxGeometry width="50" height="50" relative="1" as="geometry">
            <mxPoint x="2005" y="490" as="sourcePoint" />
            <mxPoint x="2095" y="490" as="targetPoint" />
          </mxGeometry>
        </mxCell>
        <mxCell id="73jidbY0aN2KytLfvNd--41" value="" style="endArrow=none;html=1;rounded=0;exitX=0.5;exitY=0;exitDx=0;exitDy=0;entryX=0.478;entryY=1.006;entryDx=0;entryDy=0;entryPerimeter=0;" parent="1" source="73jidbY0aN2KytLfvNd--39" target="73jidbY0aN2KytLfvNd--17" edge="1">
          <mxGeometry width="50" height="50" relative="1" as="geometry">
            <mxPoint x="1835" y="409" as="sourcePoint" />
            <mxPoint x="2060" y="410" as="targetPoint" />
          </mxGeometry>
        </mxCell>
        <mxCell id="73jidbY0aN2KytLfvNd--42" value="" style="endArrow=none;html=1;rounded=0;entryX=0.5;entryY=1;entryDx=0;entryDy=0;exitX=0.5;exitY=0;exitDx=0;exitDy=0;" parent="1" target="73jidbY0aN2KytLfvNd--39" edge="1">
          <mxGeometry width="50" height="50" relative="1" as="geometry">
            <mxPoint x="2025" y="549" as="sourcePoint" />
            <mxPoint x="2034" y="381" as="targetPoint" />
          </mxGeometry>
        </mxCell>
        <mxCell id="73jidbY0aN2KytLfvNd--43" value="0, N" style="text;html=1;align=center;verticalAlign=middle;whiteSpace=wrap;rounded=0;" parent="1" vertex="1">
          <mxGeometry x="1970" y="519" width="60" height="30" as="geometry" />
        </mxCell>
        <mxCell id="73jidbY0aN2KytLfvNd--44" value="0, 1" style="text;html=1;align=center;verticalAlign=middle;whiteSpace=wrap;rounded=0;" parent="1" vertex="1">
          <mxGeometry x="1960" y="408.5" width="60" height="30" as="geometry" />
        </mxCell>
        <mxCell id="73jidbY0aN2KytLfvNd--45" value="является&lt;div&gt;&lt;br/&gt;&lt;/div&gt;" style="ellipse;whiteSpace=wrap;html=1;" parent="1" vertex="1">
          <mxGeometry x="2085" y="34" width="110" height="70" as="geometry" />
        </mxCell>
        <mxCell id="73jidbY0aN2KytLfvNd--46" value="" style="endArrow=none;html=1;rounded=0;exitX=0;exitY=0.5;exitDx=0;exitDy=0;entryX=1;entryY=0.5;entryDx=0;entryDy=0;" parent="1" source="73jidbY0aN2KytLfvNd--45" target="73jidbY0aN2KytLfvNd--45" edge="1">
          <mxGeometry width="50" height="50" relative="1" as="geometry">
            <mxPoint x="2045" y="70" as="sourcePoint" />
            <mxPoint x="2135" y="70" as="targetPoint" />
          </mxGeometry>
        </mxCell>
        <mxCell id="73jidbY0aN2KytLfvNd--47" value="" style="endArrow=none;html=1;rounded=0;entryX=0;entryY=0.25;entryDx=0;entryDy=0;exitX=1;exitY=0.5;exitDx=0;exitDy=0;" parent="1" source="73jidbY0aN2KytLfvNd--45" edge="1">
          <mxGeometry width="50" height="50" relative="1" as="geometry">
            <mxPoint x="2045" y="84" as="sourcePoint" />
            <mxPoint x="2415" y="71" as="targetPoint" />
          </mxGeometry>
        </mxCell>
        <mxCell id="73jidbY0aN2KytLfvNd--48" value="" style="endArrow=none;html=1;rounded=0;entryX=0;entryY=0.5;entryDx=0;entryDy=0;exitX=0.5;exitY=0;exitDx=0;exitDy=0;" parent="1" target="73jidbY0aN2KytLfvNd--45" edge="1">
          <mxGeometry width="50" height="50" relative="1" as="geometry">
            <mxPoint x="2035" y="164" as="sourcePoint" />
            <mxPoint x="2055" y="244" as="targetPoint" />
            <Array as="points">
              <mxPoint x="2035" y="69" />
            </Array>
          </mxGeometry>
        </mxCell>
        <mxCell id="73jidbY0aN2KytLfvNd--49" value="0, 1" style="text;html=1;align=center;verticalAlign=middle;whiteSpace=wrap;rounded=0;" parent="1" vertex="1">
          <mxGeometry x="1980" y="134" width="60" height="30" as="geometry" />
        </mxCell>
        <mxCell id="73jidbY0aN2KytLfvNd--50" value="0, N" style="text;html=1;align=center;verticalAlign=middle;whiteSpace=wrap;rounded=0;" parent="1" vertex="1">
          <mxGeometry x="2355" y="39" width="60" height="30" as="geometry" />
        </mxCell>
        <mxCell id="73jidbY0aN2KytLfvNd--51" value="" style="endArrow=none;html=1;rounded=0;entryX=0.002;entryY=0.151;entryDx=0;entryDy=0;exitX=1;exitY=0.5;exitDx=0;exitDy=0;entryPerimeter=0;" parent="1" source="73jidbY0aN2KytLfvNd--52" edge="1">
          <mxGeometry width="50" height="50" relative="1" as="geometry">
            <mxPoint x="2320" y="254" as="sourcePoint" />
            <mxPoint x="2480" y="194" as="targetPoint" />
          </mxGeometry>
        </mxCell>
        <mxCell id="73jidbY0aN2KytLfvNd--52" value="состоит в&lt;div&gt;&lt;br/&gt;&lt;/div&gt;" style="ellipse;whiteSpace=wrap;html=1;" parent="1" vertex="1">
          <mxGeometry x="2240" y="160" width="110" height="70" as="geometry" />
        </mxCell>
        <mxCell id="73jidbY0aN2KytLfvNd--53" value="" style="endArrow=none;html=1;rounded=0;exitX=0;exitY=0.5;exitDx=0;exitDy=0;entryX=1;entryY=0.5;entryDx=0;entryDy=0;" parent="1" source="73jidbY0aN2KytLfvNd--52" target="73jidbY0aN2KytLfvNd--52" edge="1">
          <mxGeometry width="50" height="50" relative="1" as="geometry">
            <mxPoint x="2170" y="250" as="sourcePoint" />
            <mxPoint x="2260" y="250" as="targetPoint" />
          </mxGeometry>
        </mxCell>
        <mxCell id="73jidbY0aN2KytLfvNd--54" value="" style="endArrow=none;html=1;rounded=0;entryX=0;entryY=0.5;entryDx=0;entryDy=0;exitX=1;exitY=0.068;exitDx=0;exitDy=0;exitPerimeter=0;" parent="1" target="73jidbY0aN2KytLfvNd--52" edge="1">
          <mxGeometry width="50" height="50" relative="1" as="geometry">
            <mxPoint x="2120" y="196" as="sourcePoint" />
            <mxPoint x="2201" y="234" as="targetPoint" />
          </mxGeometry>
        </mxCell>
        <mxCell id="73jidbY0aN2KytLfvNd--55" value="0, 1" style="text;html=1;align=center;verticalAlign=middle;whiteSpace=wrap;rounded=0;" parent="1" vertex="1">
          <mxGeometry x="2120" y="164" width="60" height="30" as="geometry" />
        </mxCell>
        <mxCell id="73jidbY0aN2KytLfvNd--56" value="0, N" style="text;html=1;align=center;verticalAlign=middle;whiteSpace=wrap;rounded=0;" parent="1" vertex="1">
          <mxGeometry x="2415" y="170" width="60" height="30" as="geometry" />
        </mxCell>
        <mxCell id="73jidbY0aN2KytLfvNd--57" value="находится в&lt;div&gt;&lt;br/&gt;&lt;/div&gt;" style="ellipse;whiteSpace=wrap;html=1;" parent="1" vertex="1">
          <mxGeometry x="2315" y="368.5" width="110" height="70" as="geometry" />
        </mxCell>
        <mxCell id="73jidbY0aN2KytLfvNd--58" value="" style="endArrow=none;html=1;rounded=0;exitX=0;exitY=0.5;exitDx=0;exitDy=0;entryX=1;entryY=0.5;entryDx=0;entryDy=0;" parent="1" source="73jidbY0aN2KytLfvNd--57" target="73jidbY0aN2KytLfvNd--57" edge="1">
          <mxGeometry width="50" height="50" relative="1" as="geometry">
            <mxPoint x="2275" y="429.5" as="sourcePoint" />
            <mxPoint x="2365" y="429.5" as="targetPoint" />
          </mxGeometry>
        </mxCell>
        <mxCell id="73jidbY0aN2KytLfvNd--59" value="" style="endArrow=none;html=1;rounded=0;entryX=0.5;entryY=1;entryDx=0;entryDy=0;exitX=0.75;exitY=0;exitDx=0;exitDy=0;" parent="1" target="73jidbY0aN2KytLfvNd--57" edge="1">
          <mxGeometry width="50" height="50" relative="1" as="geometry">
            <mxPoint x="2085" y="548.5" as="sourcePoint" />
            <mxPoint x="2195" y="368.5" as="targetPoint" />
            <Array as="points">
              <mxPoint x="2085" y="508.5" />
              <mxPoint x="2370" y="508.5" />
            </Array>
          </mxGeometry>
        </mxCell>
        <mxCell id="73jidbY0aN2KytLfvNd--60" value="" style="endArrow=none;html=1;rounded=0;exitX=0.5;exitY=0;exitDx=0;exitDy=0;entryX=0.432;entryY=0.991;entryDx=0;entryDy=0;entryPerimeter=0;" parent="1" source="73jidbY0aN2KytLfvNd--57" target="73jidbY0aN2KytLfvNd--9" edge="1">
          <mxGeometry width="50" height="50" relative="1" as="geometry">
            <mxPoint x="2145" y="418.5" as="sourcePoint" />
            <mxPoint x="2560" y="320" as="targetPoint" />
            <Array as="points">
              <mxPoint x="2370" y="340" />
              <mxPoint x="2550" y="340" />
            </Array>
          </mxGeometry>
        </mxCell>
        <mxCell id="73jidbY0aN2KytLfvNd--61" value="0, 1" style="text;html=1;align=center;verticalAlign=middle;whiteSpace=wrap;rounded=0;" parent="1" vertex="1">
          <mxGeometry x="2555" y="321" width="60" height="21.5" as="geometry" />
        </mxCell>
        <mxCell id="73jidbY0aN2KytLfvNd--62" value="0, 1" style="text;html=1;align=center;verticalAlign=middle;whiteSpace=wrap;rounded=0;" parent="1" vertex="1">
          <mxGeometry x="2080" y="519" width="60" height="30" as="geometry" />
        </mxCell>
        <mxCell id="73jidbY0aN2KytLfvNd--63" value="" style="endArrow=none;html=1;rounded=0;exitX=1;exitY=0.5;exitDx=0;exitDy=0;" parent="1" source="73jidbY0aN2KytLfvNd--64" edge="1">
          <mxGeometry width="50" height="50" relative="1" as="geometry">
            <mxPoint x="2771" y="258" as="sourcePoint" />
            <mxPoint x="2861" y="198" as="targetPoint" />
          </mxGeometry>
        </mxCell>
        <mxCell id="73jidbY0aN2KytLfvNd--64" value="&lt;div&gt;состоит в&lt;/div&gt;&lt;div&gt;&lt;br&gt;&lt;/div&gt;" style="ellipse;whiteSpace=wrap;html=1;" parent="1" vertex="1">
          <mxGeometry x="2681" y="164" width="110" height="70" as="geometry" />
        </mxCell>
        <mxCell id="73jidbY0aN2KytLfvNd--65" value="" style="endArrow=none;html=1;rounded=0;exitX=0;exitY=0.5;exitDx=0;exitDy=0;entryX=1;entryY=0.5;entryDx=0;entryDy=0;" parent="1" source="73jidbY0aN2KytLfvNd--64" target="73jidbY0aN2KytLfvNd--64" edge="1">
          <mxGeometry width="50" height="50" relative="1" as="geometry">
            <mxPoint x="2621" y="254" as="sourcePoint" />
            <mxPoint x="2711" y="254" as="targetPoint" />
          </mxGeometry>
        </mxCell>
        <mxCell id="73jidbY0aN2KytLfvNd--66" value="" style="endArrow=none;html=1;rounded=0;entryX=0;entryY=0.5;entryDx=0;entryDy=0;" parent="1" target="73jidbY0aN2KytLfvNd--64" edge="1">
          <mxGeometry width="50" height="50" relative="1" as="geometry">
            <mxPoint x="2641" y="199" as="sourcePoint" />
            <mxPoint x="2652" y="238" as="targetPoint" />
          </mxGeometry>
        </mxCell>
        <mxCell id="73jidbY0aN2KytLfvNd--67" value="1, 1" style="text;html=1;align=center;verticalAlign=middle;whiteSpace=wrap;rounded=0;" parent="1" vertex="1">
          <mxGeometry x="2810" y="170" width="60" height="30" as="geometry" />
        </mxCell>
        <mxCell id="73jidbY0aN2KytLfvNd--68" value="0, N" style="text;html=1;align=center;verticalAlign=middle;whiteSpace=wrap;rounded=0;" parent="1" vertex="1">
          <mxGeometry x="2630" y="170" width="60" height="30" as="geometry" />
        </mxCell>
        <mxCell id="73jidbY0aN2KytLfvNd--69" value="" style="endArrow=none;html=1;rounded=0;entryX=0.5;entryY=0;entryDx=0;entryDy=0;exitX=1;exitY=0.5;exitDx=0;exitDy=0;" parent="1" source="73jidbY0aN2KytLfvNd--70" target="73jidbY0aN2KytLfvNd--26" edge="1">
          <mxGeometry width="50" height="50" relative="1" as="geometry">
            <mxPoint x="2775" y="124" as="sourcePoint" />
            <mxPoint x="2935" y="64" as="targetPoint" />
            <Array as="points">
              <mxPoint x="2965" y="65" />
            </Array>
          </mxGeometry>
        </mxCell>
        <mxCell id="73jidbY0aN2KytLfvNd--70" value="состоит в&lt;div&gt;&lt;br/&gt;&lt;/div&gt;" style="ellipse;whiteSpace=wrap;html=1;" parent="1" vertex="1">
          <mxGeometry x="2695" y="30" width="110" height="70" as="geometry" />
        </mxCell>
        <mxCell id="73jidbY0aN2KytLfvNd--71" value="" style="endArrow=none;html=1;rounded=0;exitX=0;exitY=0.5;exitDx=0;exitDy=0;entryX=1;entryY=0.5;entryDx=0;entryDy=0;" parent="1" source="73jidbY0aN2KytLfvNd--70" target="73jidbY0aN2KytLfvNd--70" edge="1">
          <mxGeometry width="50" height="50" relative="1" as="geometry">
            <mxPoint x="2625" y="120" as="sourcePoint" />
            <mxPoint x="2715" y="120" as="targetPoint" />
          </mxGeometry>
        </mxCell>
        <mxCell id="73jidbY0aN2KytLfvNd--72" value="" style="endArrow=none;html=1;rounded=0;entryX=0;entryY=0.5;entryDx=0;entryDy=0;exitX=1;exitY=0.068;exitDx=0;exitDy=0;exitPerimeter=0;" parent="1" target="73jidbY0aN2KytLfvNd--70" edge="1">
          <mxGeometry width="50" height="50" relative="1" as="geometry">
            <mxPoint x="2575" y="66" as="sourcePoint" />
            <mxPoint x="2656" y="104" as="targetPoint" />
          </mxGeometry>
        </mxCell>
        <mxCell id="73jidbY0aN2KytLfvNd--73" value="0, N" style="text;html=1;align=center;verticalAlign=middle;whiteSpace=wrap;rounded=0;" parent="1" vertex="1">
          <mxGeometry x="2575" y="34" width="60" height="30" as="geometry" />
        </mxCell>
        <mxCell id="73jidbY0aN2KytLfvNd--74" value="1, 1" style="text;html=1;align=center;verticalAlign=middle;whiteSpace=wrap;rounded=0;" parent="1" vertex="1">
          <mxGeometry x="2960" y="140" width="60" height="30" as="geometry" />
        </mxCell>
      </root>
    </mxGraphModel>
  </diagram>
</mxfile>
